<?xml version="1.0" encoding="iso-8859-1"?>
<!-- Generator: Adobe Illustrator 19.0.0, SVG Export Plug-In . SVG Version: 6.00 Build 0)  -->
<svg version="1.1" id="Capa_1" xmlns="http://www.w3.org/2000/svg" xmlns:xlink="http://www.w3.org/1999/xlink" x="0px" y="0px"
	 viewBox="0 0 480 480" style="enable-background:new 0 0 480 480;" xml:space="preserve">
<g>
	<g>
		<path d="M289.504,0h-256c-17.632,0-32,14.368-32,32v416c0,17.664,14.368,32,32,32h256c17.664,0,32-14.336,32-32V32
			C321.504,14.368,307.168,0,289.504,0z M197.504,288c-6.816,0-13.536-1.28-20-3.36V320h16c8.832,0,16,7.168,16,16
			c0,8.832-7.168,16-16,16h-64c-8.832,0-16-7.168-16-16c0-8.832,7.168-16,16-16h16v-35.36c-6.464,2.08-13.184,3.36-20,3.36
			c-33.632,0-60-25.088-60-57.152c0-42.016,66.944-87.456,87.456-100.384c5.184-3.232,11.744-3.296,16.928-0.064
			c14.656,8.992,87.616,56.288,87.616,100.448C257.504,262.912,231.136,288,197.504,288z"/>
	</g>
</g>
<g>
	<g>
		<path d="M397.92,50.784L353.504,38.88v301.312l67.04-250.208C425.12,72.928,414.976,55.36,397.92,50.784z"/>
	</g>
</g>
<g>
	<g>
		<path d="M462.496,143.168l-19.968-11.52l-55.072,205.504l86.752-150.272C483.04,171.552,477.792,152,462.496,143.168z"/>
	</g>
</g>
<g>
</g>
<g>
</g>
<g>
</g>
<g>
</g>
<g>
</g>
<g>
</g>
<g>
</g>
<g>
</g>
<g>
</g>
<g>
</g>
<g>
</g>
<g>
</g>
<g>
</g>
<g>
</g>
<g>
</g>
</svg>
