<?xml version="1.0" encoding="UTF-8"?>
<svg xmlns="http://www.w3.org/2000/svg" xmlns:xlink="http://www.w3.org/1999/xlink" width="128pt" height="104pt" viewBox="0 0 128 104" version="1.1">
<g id="surface1">
<path style=" stroke:none;fill-rule:nonzero;fill:rgb(0%,0%,0%);fill-opacity:1;" d="M 32.398438 0.28125 C 31.238281 0.589844 30.550781 0.910156 29.648438 1.550781 C 28.941406 2.050781 27.949219 3.070312 27.558594 3.679688 C 27.089844 4.429688 26.039062 6.609375 25.71875 7.5 C 25.078125 9.289062 24.941406 9.621094 24.769531 9.71875 C 24.660156 9.78125 24.371094 9.78125 23.980469 9.71875 C 23.378906 9.628906 23.351562 9.640625 23.160156 9.878906 C 23.039062 10.019531 22.789062 10.300781 22.589844 10.488281 C 22.398438 10.691406 22.050781 11.101562 21.828125 11.398438 C 21.398438 11.980469 20.960938 12.421875 20.171875 13.039062 C 19.898438 13.261719 19.578125 13.539062 19.449219 13.671875 C 19.199219 13.949219 18.648438 14.070312 16.550781 14.351562 C 15.890625 14.429688 15.210938 14.550781 15.039062 14.609375 C 14.839844 14.671875 14.351562 15.109375 13.71875 15.789062 C 12.839844 16.730469 12.609375 16.921875 11.929688 17.25 C 11.5 17.449219 10.890625 17.660156 10.570312 17.699219 C 10.160156 17.761719 9.871094 17.878906 9.558594 18.121094 C 9.320312 18.300781 8.699219 18.769531 8.179688 19.160156 C 7.140625 19.949219 6.238281 21 5.480469 22.328125 C 4.898438 23.328125 2.988281 27.621094 2.75 28.449219 C 2.660156 28.769531 2.480469 29.25 2.351562 29.5 C 2.230469 29.75 1.929688 30.441406 1.699219 31.050781 C 1.460938 31.648438 1.101562 32.371094 0.898438 32.648438 C 0.0390625 33.789062 0.0507812 33.769531 0.078125 36.300781 C 0.121094 38.878906 0.101562 38.800781 1.070312 39.839844 L 1.71875 40.519531 L 1.671875 42.191406 C 1.609375 44.429688 1.410156 47.429688 1.28125 48.101562 C 1.230469 48.398438 1.191406 48.828125 1.199219 49.050781 C 1.261719 50.101562 1.230469 51.730469 1.109375 53.5 C 1.011719 55.078125 1.011719 55.640625 1.109375 56.441406 C 1.230469 57.398438 1.230469 57.460938 1.011719 58.039062 C 0.359375 59.75 0.359375 59.730469 0.339844 62.800781 C 0.328125 64.371094 0.289062 66.078125 0.25 66.601562 C 0.121094 68.269531 0.53125 69.730469 1.710938 71.769531 C 2.398438 72.960938 2.621094 73.25 3.871094 74.578125 C 4.46875 75.210938 5 75.820312 5.058594 75.921875 C 5.128906 76.050781 5.128906 76.328125 5.070312 76.78125 C 4.929688 77.789062 5.039062 79.960938 5.25 80.441406 C 5.390625 80.78125 5.398438 80.921875 5.300781 81.390625 C 5.171875 82.019531 5.289062 83.398438 5.5 83.648438 C 5.570312 83.730469 5.960938 84.011719 6.359375 84.269531 L 7.101562 84.730469 L 7.101562 85.839844 C 7.089844 87.441406 6.941406 88.898438 6.761719 89.269531 C 6.648438 89.460938 6.570312 89.960938 6.539062 90.570312 C 6.480469 91.519531 6.488281 91.558594 6.75 91.949219 C 7.140625 92.5 7.300781 92.929688 7.300781 93.359375 C 7.300781 93.679688 7.378906 93.800781 7.878906 94.269531 C 8.191406 94.558594 8.71875 94.929688 9.050781 95.089844 C 9.378906 95.25 9.808594 95.5 10 95.640625 C 10.480469 96.011719 11.46875 96.289062 12.609375 96.398438 C 13.128906 96.449219 13.738281 96.519531 13.960938 96.550781 C 14.191406 96.589844 14.628906 96.550781 15.03125 96.460938 C 15.410156 96.371094 15.898438 96.300781 16.128906 96.300781 C 16.589844 96.300781 17.339844 96.121094 17.921875 95.871094 C 18.519531 95.621094 18.519531 95.421875 17.941406 93.75 C 17.710938 93.101562 17.371094 92.570312 17.019531 92.339844 C 16.710938 92.128906 16.488281 92.078125 15.140625 91.949219 C 14.621094 91.890625 14.511719 91.851562 14.410156 91.640625 C 14.351562 91.511719 14.191406 91.339844 14.050781 91.28125 C 13.808594 91.171875 13.789062 91.128906 13.859375 90.761719 C 13.941406 90.25 14.070312 90 14.25 90 C 14.488281 90 15 89.5 15.078125 89.171875 C 15.128906 88.96875 15.308594 88.75 15.609375 88.550781 C 15.898438 88.351562 16.148438 88.050781 16.328125 87.691406 C 16.699219 86.96875 17.121094 86.628906 17.480469 86.769531 C 17.691406 86.839844 17.828125 86.820312 18.101562 86.691406 C 19.21875 86.140625 19.429688 86.121094 19.898438 86.550781 C 20.101562 86.730469 20.320312 86.789062 20.949219 86.851562 C 21.578125 86.910156 21.808594 86.96875 22.03125 87.160156 C 22.191406 87.289062 22.351562 87.398438 22.378906 87.398438 C 22.421875 87.398438 22.839844 87.460938 23.328125 87.539062 C 24.070312 87.660156 24.261719 87.738281 24.601562 88.03125 C 25.03125 88.390625 25.460938 88.550781 25.921875 88.511719 C 26.21875 88.488281 27.089844 88.910156 27.359375 89.210938 C 27.601562 89.480469 27.480469 89.941406 26.890625 90.910156 C 26.230469 92 25.570312 93.320312 25.371094 93.949219 C 25.070312 94.871094 24.800781 96.46875 24.800781 97.28125 C 24.800781 97.730469 24.738281 98.261719 24.648438 98.5 C 24.570312 98.738281 24.5 99.269531 24.5 99.699219 L 24.5 100.480469 L 24.960938 100.890625 C 25.480469 101.351562 26.441406 101.699219 27.148438 101.699219 C 27.429688 101.699219 27.769531 101.800781 28.148438 102 C 28.890625 102.390625 29.671875 102.398438 31.269531 102.039062 C 31.96875 101.878906 32.570312 101.800781 32.78125 101.839844 C 33.25 101.910156 34.589844 102.550781 34.898438 102.851562 C 35.300781 103.238281 35.988281 103.480469 37 103.589844 C 37.519531 103.648438 38.269531 103.75 38.648438 103.808594 C 40.460938 104.070312 47.699219 104 49.488281 103.699219 C 50.25 103.578125 51.089844 103.21875 51.449219 102.859375 C 51.738281 102.570312 51.78125 102.070312 51.550781 101.761719 C 51.46875 101.648438 51.398438 101.421875 51.398438 101.261719 C 51.378906 100.449219 50.640625 99.191406 50.019531 98.929688 C 49.820312 98.839844 49.199219 98.699219 48.648438 98.601562 C 47.988281 98.488281 47.289062 98.28125 46.601562 97.980469 C 45.46875 97.5 44.640625 97.03125 44.75 96.921875 C 44.789062 96.878906 46.351562 96.851562 48.230469 96.851562 C 52.429688 96.851562 52.609375 96.820312 54.519531 95.738281 C 55.769531 95.039062 56 94.75 56.441406 93.359375 C 57.230469 90.871094 57.328125 90.050781 57 88.75 C 56.648438 87.390625 56.238281 86.789062 53.488281 83.640625 C 50.648438 80.390625 47.441406 77.390625 44.210938 74.941406 C 42.929688 73.96875 42.75 73.800781 42.71875 73.519531 C 42.691406 73.261719 43.371094 70.230469 43.851562 68.449219 C 43.921875 68.171875 44.101562 67.410156 44.25 66.75 C 44.589844 65.261719 44.761719 64.601562 45.390625 62.449219 C 45.660156 61.511719 45.980469 60.28125 46.101562 59.699219 C 46.328125 58.648438 46.53125 57.871094 46.859375 56.761719 C 47.019531 56.230469 47.03125 56.03125 46.921875 54.460938 C 46.710938 51.609375 46.601562 51.308594 45.25 49.949219 C 44.5 49.210938 43.46875 48.609375 42.601562 48.410156 C 41.851562 48.238281 40.148438 48.28125 39.070312 48.5 C 38.519531 48.609375 38.050781 48.71875 38.011719 48.75 C 37.96875 48.769531 37.738281 48.828125 37.511719 48.890625 C 36.851562 49.039062 36.878906 48.808594 37.648438 47.980469 C 39.078125 46.429688 39.878906 45.269531 41.191406 42.800781 C 41.699219 41.828125 42.078125 41.261719 42.53125 40.789062 C 42.871094 40.421875 43.28125 39.929688 43.429688 39.699219 C 43.699219 39.289062 43.730469 39.28125 44.128906 39.320312 C 44.359375 39.351562 45.199219 39.589844 46 39.871094 C 46.800781 40.140625 47.808594 40.480469 48.25 40.621094 C 48.691406 40.761719 49.429688 41.019531 49.898438 41.179688 C 50.371094 41.351562 51.21875 41.609375 51.789062 41.75 C 52.359375 41.890625 53.089844 42.121094 53.410156 42.25 C 53.730469 42.378906 54.230469 42.53125 54.519531 42.589844 C 54.808594 42.660156 55.308594 42.800781 55.628906 42.921875 C 56.121094 43.101562 56.328125 43.121094 57.078125 43.058594 C 57.558594 43.019531 58.511719 42.949219 59.199219 42.910156 C 59.890625 42.859375 60.628906 42.769531 60.851562 42.699219 C 61.070312 42.628906 62.019531 42.199219 62.960938 41.738281 L 64.671875 40.910156 L 66.101562 39.460938 C 66.878906 38.660156 67.609375 37.859375 67.730469 37.679688 C 68.070312 37.109375 69.609375 35.660156 70.628906 34.960938 C 71.691406 34.230469 71.96875 33.910156 72.25 33.160156 C 72.339844 32.898438 72.621094 32.460938 72.859375 32.191406 C 73.421875 31.558594 73.539062 31.320312 73.75 30.398438 C 73.851562 29.988281 73.949219 29.519531 73.988281 29.351562 C 74.058594 29.058594 74.078125 29.050781 74.960938 28.929688 C 76.871094 28.660156 77.488281 28.601562 78.589844 28.601562 C 79.671875 28.601562 79.738281 28.589844 79.960938 28.351562 C 80.089844 28.210938 80.300781 28.101562 80.441406 28.101562 C 80.808594 28.101562 81.121094 27.960938 81.5 27.601562 C 81.691406 27.429688 82.101562 27.148438 82.421875 26.988281 L 83 26.699219 L 83.621094 26.898438 C 83.960938 27.011719 84.398438 27.101562 84.609375 27.101562 C 84.960938 27.101562 85.050781 27.03125 85.699219 26.289062 C 86.089844 25.851562 86.460938 25.378906 86.519531 25.25 C 86.660156 24.929688 86.988281 24.828125 88 24.761719 C 89.140625 24.691406 89.699219 24.480469 90.25 23.921875 C 90.5 23.671875 90.699219 23.429688 90.699219 23.378906 C 90.699219 23.25 93.820312 23.289062 103.699219 23.550781 C 108.839844 23.679688 115.210938 23.839844 117.851562 23.898438 C 120.488281 23.960938 123 24.050781 123.429688 24.089844 C 124.339844 24.171875 124.398438 24.128906 124.398438 23.359375 L 124.398438 22.898438 L 126.140625 22.898438 C 128.089844 22.898438 128 22.929688 128 22.148438 C 128 21.660156 127.988281 21.660156 127.078125 21.550781 C 126.558594 21.488281 126.488281 21.449219 126.300781 21.128906 C 126.128906 20.839844 126.070312 20.800781 125.949219 20.898438 C 125.871094 20.96875 125.800781 21.078125 125.800781 21.160156 C 125.800781 21.5 125.46875 21.519531 121.070312 21.398438 C 118.691406 21.339844 114.699219 21.230469 112.199219 21.148438 C 101.03125 20.789062 93.710938 20.589844 85.550781 20.398438 C 79.289062 20.261719 79.128906 20.25 78.921875 20.078125 C 78.78125 19.960938 78.230469 19.949219 75.199219 20.011719 C 71.800781 20.078125 71.628906 20.078125 71.269531 19.890625 C 70.730469 19.609375 69.46875 19.621094 69.230469 19.898438 C 69.070312 20.089844 68.929688 20.101562 67.378906 20.101562 C 65.789062 20.101562 65.691406 20.089844 65.480469 19.878906 C 65.300781 19.699219 65.101562 19.648438 64.308594 19.589844 C 62.671875 19.46875 54.96875 19.261719 54.679688 19.328125 C 54.488281 19.378906 54.398438 19.46875 54.398438 19.609375 C 54.398438 19.789062 54.359375 19.808594 54.101562 19.75 C 53.730469 19.671875 52.859375 19.859375 52.691406 20.058594 C 52.628906 20.140625 52.550781 20.339844 52.511719 20.519531 C 52.460938 20.78125 52.351562 20.890625 51.949219 21.078125 C 51.039062 21.539062 50.648438 21.511719 49.238281 20.839844 C 48.46875 20.480469 48.121094 20.519531 47.488281 21.039062 C 46.75 21.640625 45.578125 22.398438 45.480469 22.339844 C 45.441406 22.308594 45.398438 22.210938 45.398438 22.109375 C 45.398438 22.019531 45.238281 21.328125 45.050781 20.589844 C 44.859375 19.851562 44.699219 19.199219 44.699219 19.140625 C 44.699219 19.058594 45.03125 19.011719 45.628906 18.980469 C 47.039062 18.921875 48.089844 18.378906 48.300781 17.609375 C 48.421875 17.148438 48.121094 16.449219 47.46875 15.71875 C 47.21875 15.441406 46.960938 15.039062 46.890625 14.828125 C 46.828125 14.621094 46.738281 13.378906 46.699219 12.050781 C 46.570312 8.261719 46.21875 7.121094 44.53125 5.03125 C 43.199219 3.378906 41.589844 2.101562 39.738281 1.238281 C 37.839844 0.339844 36.878906 0.101562 34.851562 0.0390625 C 33.550781 0 33.378906 0.0117188 32.398438 0.28125 Z M 67 25.890625 C 67 26.039062 66.519531 26.378906 66.171875 26.488281 C 65.988281 26.539062 65.398438 26.660156 64.851562 26.75 C 64.140625 26.871094 63.691406 27.011719 63.308594 27.21875 C 63.011719 27.378906 62.328125 27.628906 61.808594 27.75 C 61.28125 27.878906 60.429688 28.128906 59.921875 28.308594 C 58.878906 28.660156 58.648438 28.621094 58.96875 28.140625 C 59.070312 27.988281 59.289062 27.589844 59.449219 27.261719 C 59.761719 26.640625 59.859375 26.550781 60.851562 26.128906 C 61.070312 26.039062 61.359375 25.929688 61.5 25.890625 C 61.890625 25.789062 67 25.789062 67 25.890625 Z M 58.910156 26.320312 C 59.21875 26.828125 59.109375 27.53125 58.648438 28 L 58.300781 28.351562 L 57.21875 28.351562 C 56.011719 28.351562 55.621094 28.238281 55.371094 27.808594 C 55.039062 27.238281 55.050781 27.238281 56.878906 27.460938 C 57.351562 27.511719 57.449219 27.488281 57.820312 27.238281 C 58.230469 26.960938 58.339844 26.789062 58.441406 26.269531 C 58.519531 25.910156 58.660156 25.929688 58.910156 26.320312 Z M 54.480469 26.96875 C 54.601562 27.121094 54.871094 27.519531 55.070312 27.839844 C 55.421875 28.398438 55.421875 28.441406 55.25 28.558594 C 55.148438 28.640625 54.871094 28.699219 54.640625 28.699219 C 54.410156 28.699219 54.058594 28.769531 53.871094 28.851562 C 53.171875 29.140625 52.300781 28.96875 52.300781 28.550781 C 52.300781 28.421875 52.371094 28.269531 52.449219 28.199219 C 52.53125 28.128906 52.808594 27.738281 53.070312 27.328125 C 53.539062 26.589844 53.550781 26.578125 53.898438 26.640625 C 54.109375 26.671875 54.339844 26.800781 54.480469 26.96875 Z M 54.480469 26.96875 "/>
</g>
</svg>
