<?xml version="1.0" standalone="no"?>
<!DOCTYPE svg PUBLIC "-//W3C//DTD SVG 20010904//EN"
 "http://www.w3.org/TR/2001/REC-SVG-20010904/DTD/svg10.dtd">
<svg version="1.0" xmlns="http://www.w3.org/2000/svg"
 width="42.000000pt" height="42.000000pt" viewBox="0 0 42.000000 42.000000"
 preserveAspectRatio="xMidYMid meet">

<g transform="translate(0.000000,42.000000) scale(0.100000,-0.100000)"
fill="#000000" stroke="none">
<path d="M141 353 c-8 -8 -14 -31 -13 -50 1 -28 -4 -37 -28 -51 -40 -23 -55
-53 -41 -80 6 -11 11 -36 11 -56 0 -60 6 -66 71 -66 l59 0 -6 30 c-4 16 -3 41
0 55 5 21 12 25 42 25 24 0 43 8 60 25 14 14 36 28 49 31 39 10 29 24 -17 25
-24 1 -47 0 -53 -1 -5 -2 -25 -5 -44 -8 -32 -4 -33 -3 -27 22 3 14 8 36 12 49
3 14 -2 31 -14 45 -23 26 -41 27 -61 5z"/>
</g>
</svg>
